<svg width="28" height="27" viewBox="0 0 28 27" fill="none" xmlns="http://www.w3.org/2000/svg">
<path d="M23.1935 26.019H16.4042C16.0919 26.019 15.8401 25.7672 15.8401 25.4549V18.1015H11.3172V25.4549C11.3172 25.7672 11.0654 26.019 10.7531 26.019H3.95876C3.64649 26.019 3.39466 25.7672 3.39466 25.4549V14.1427C3.39466 13.8305 3.64649 13.5786 3.95876 13.5786C4.27103 13.5786 4.52286 13.8305 4.52286 14.1427V24.8908H10.1789V17.5374C10.1789 17.2251 10.4308 16.9733 10.743 16.9733H16.3991C16.7114 16.9733 16.9632 17.2251 16.9632 17.5374V24.8908H22.6193V14.7068C22.6193 14.3946 22.8711 14.1427 23.1834 14.1427C23.4957 14.1427 23.7475 14.3946 23.7475 14.7068V25.4549C23.7576 25.7672 23.5058 26.019 23.1935 26.019ZM26.5831 14.1427C26.437 14.1427 26.296 14.0873 26.1852 13.9765L13.5736 1.36492L0.967025 13.9765C0.745415 14.1981 0.387817 14.1981 0.166207 13.9765C-0.0554025 13.7549 -0.0554025 13.3973 0.166207 13.1757L13.1757 0.166207C13.3973 -0.0554025 13.7549 -0.0554025 13.9765 0.166207L26.986 13.1757C27.2076 13.3973 27.2076 13.7549 26.986 13.9765C26.8752 14.0873 26.7292 14.1427 26.5831 14.1427ZM22.0603 6.22019C21.748 6.22019 21.4962 5.96836 21.4962 5.65609V2.26143H18.1015C17.7892 2.26143 17.5374 2.0096 17.5374 1.69733C17.5374 1.38506 17.7892 1.13323 18.1015 1.13323H22.0603C22.3725 1.13323 22.6244 1.38506 22.6244 1.69733V5.65609C22.6244 5.96836 22.3725 6.22019 22.0603 6.22019Z" fill="#201E21"/>
</svg>
