<svg width="35" height="37" viewBox="0 0 35 37" fill="none" xmlns="http://www.w3.org/2000/svg">
<path d="M32.7173 31.9565H31.9564V31.1956C31.9564 30.205 31.3188 29.368 30.4347 29.053V18.1208C31.3189 17.8058 31.9564 16.9689 31.9564 15.9783V15.2174H32.7173C33.1373 15.2174 33.4782 14.8765 33.4782 14.4565V12.1739H34.2391C34.5769 12.1739 34.8737 11.9517 34.968 11.626C35.0624 11.3004 34.933 10.9535 34.647 10.7709L17.9078 0.118713C17.6582 -0.0395711 17.3402 -0.0395711 17.0906 0.118713L0.351522 10.7709C0.0669803 10.9535 -0.063913 11.3019 0.0304585 11.626C0.12483 11.9502 0.423067 12.1739 0.760893 12.1739H1.52171V14.4565C1.52171 14.8765 1.86261 15.2174 2.28261 15.2174H3.0435V15.9783C3.0435 16.9689 3.68113 17.8058 4.56521 18.1208V29.053C3.68106 29.368 3.0435 30.205 3.0435 31.1956V31.9565H2.28261C1.02411 31.9565 0 32.9806 0 34.2391V35.7608C0 36.1808 0.340893 36.5217 0.760893 36.5217H34.2391C34.6591 36.5217 35 36.1808 35 35.7608V34.2391C34.9999 32.9806 33.9758 31.9565 32.7173 31.9565ZM30.4347 15.9783C30.4347 16.3983 30.0938 16.7392 29.6738 16.7392H26.6304C26.2104 16.7392 25.8695 16.3983 25.8695 15.9783V15.2174H30.4347V15.9783ZM19.7826 29.053V18.1208C20.6667 17.8058 21.3043 16.9689 21.3043 15.9783V15.2174H24.3478V15.9783C24.3478 16.9689 24.9854 17.8058 25.8695 18.1208V29.053C24.9854 29.368 24.3478 30.205 24.3478 31.1956V31.9565H21.3043V31.1956C21.3043 30.205 20.6667 29.368 19.7826 29.053ZM9.13043 29.053V18.1208C10.0145 17.8058 10.6521 16.9689 10.6521 15.9783V15.2174H13.6956V15.9783C13.6956 16.9689 14.3333 17.8058 15.2174 18.1208V29.053C14.3332 29.368 13.6956 30.205 13.6956 31.1956V31.9565H10.6521V31.1956C10.6521 30.205 10.0145 29.368 9.13043 29.053ZM5.32604 16.7392C4.90604 16.7392 4.56514 16.3983 4.56514 15.9783V15.2174H9.13036V15.9783C9.13036 16.3983 8.78946 16.7392 8.36946 16.7392H5.32604ZM7.60864 18.2609V28.913H6.08693V18.2609H7.60864ZM15.2174 31.1956C15.2174 30.7756 15.5582 30.4347 15.9782 30.4347H19.0218C19.4418 30.4347 19.7826 30.7756 19.7826 31.1956V31.9565H15.2174V31.1956H15.2174ZM16.7391 28.913V18.2609H18.2608V28.913H16.7391ZM19.0217 16.7392H15.9782C15.5582 16.7392 15.2173 16.3983 15.2173 15.9783V15.2174H19.7825V15.9783C19.7826 16.3983 19.4417 16.7392 19.0217 16.7392ZM25.8695 31.1956C25.8695 30.7756 26.2104 30.4347 26.6304 30.4347H29.6739C30.0939 30.4347 30.4348 30.7756 30.4348 31.1956V31.9565H25.8696V31.1956H25.8695ZM27.3913 28.913V18.2609H28.913V28.913H27.3913ZM17.5 1.66325L31.6262 10.6522H3.37369L17.5 1.66325ZM3.04343 13.6957V12.1739H31.9564V13.6957H3.04343ZM4.56521 31.1956C4.56521 30.7756 4.90611 30.4347 5.32611 30.4347H8.36954C8.78954 30.4347 9.13043 30.7756 9.13043 31.1956V31.9565H4.56521V31.1956ZM33.4782 35H1.52171V34.2391C1.52171 33.8191 1.86261 33.4782 2.28261 33.4782H32.7174C33.1374 33.4782 33.4783 33.8191 33.4783 34.2391V35H33.4782Z" fill="white"/>
<path d="M22.4865 7.73649L17.9213 4.69299C17.6656 4.52258 17.3324 4.52258 17.0767 4.69299L12.5115 7.73649C12.233 7.92217 12.1083 8.26913 12.2056 8.59019C12.3031 8.91125 12.5998 9.13038 12.9346 9.13038H22.065C22.3997 9.13038 22.695 8.91125 22.7924 8.59019C22.8898 8.26905 22.765 7.9221 22.4865 7.73649ZM15.4469 7.60867L17.4982 6.2406L19.551 7.60867H15.4469Z" fill="white"/>
</svg>
