<svg width="40" height="33" viewBox="0 0 40 33" fill="none" xmlns="http://www.w3.org/2000/svg">
<path d="M12.5071 28.2852H1.51393L2.95706 1.47329H22.3035L23.0504 15.3565C23.0722 15.7627 23.4184 16.0737 23.8256 16.0525C24.2318 16.0306 24.5435 15.6835 24.5216 15.2773L23.7372 0.697062C23.7162 0.306149 23.393 0 23.0016 0H2.25902C1.86761 0 1.54447 0.306149 1.52345 0.697062L0.00105451 28.9822C-0.00974961 29.1842 0.0628344 29.3817 0.201913 29.5285C0.341089 29.6754 0.534385 29.7585 0.736618 29.7585H12.5071C12.914 29.7585 13.2438 29.4286 13.2438 29.0218C13.2438 28.615 12.914 28.2852 12.5071 28.2852Z" fill="white"/>
<path d="M7.02082 2.73767C6.6139 2.73767 6.28418 3.06749 6.28418 3.47432V6.92417C6.28418 10.2549 8.99395 12.9647 12.3247 12.9647C15.6554 12.9647 18.3651 10.2549 18.3651 6.92417V3.47432C18.3651 3.06749 18.0354 2.73767 17.6285 2.73767C17.2216 2.73767 16.8919 3.06749 16.8919 3.47432V6.92417C16.8919 9.44251 14.8431 11.4914 12.3247 11.4914C9.80622 11.4914 7.75747 9.44251 7.75747 6.92417V3.47432C7.75747 3.06749 7.42775 2.73767 7.02082 2.73767Z" fill="white"/>
<path d="M38.7779 16.9418H36.7334L36.3013 8.80013C36.2806 8.40902 35.9573 8.10248 35.5657 8.10248H34.3872V7.35159C34.3872 5.89726 33.204 4.71411 31.7497 4.71411C30.2954 4.71411 29.1121 5.89726 29.1121 7.35159V8.10248H28.1488C27.7572 8.10248 27.434 8.40902 27.4132 8.80013L26.9813 16.9418H14.9117C14.5048 16.9418 14.175 17.2716 14.175 17.6785V32.2633C14.175 32.6702 14.5048 33 14.9117 33H38.7778C39.1847 33 39.5144 32.6702 39.5144 32.2633V17.6785C39.5145 17.2716 39.1847 16.9418 38.7779 16.9418ZM30.5853 7.35169C30.5853 6.70973 31.1076 6.1875 31.7496 6.1875C32.3915 6.1875 32.9138 6.70973 32.9138 7.35169V8.10258H30.5854V7.35169H30.5853ZM28.8473 9.57587H34.867L35.2579 16.9418H28.4564L28.8473 9.57587ZM38.0412 18.4151V20.6248H15.6483V18.4151H38.0412ZM15.6483 31.5267V22.0982H38.0411V31.5267H15.6483Z" fill="white"/>
</svg>
