<svg width="20" height="49" viewBox="0 0 20 49" fill="none" xmlns="http://www.w3.org/2000/svg">
<path d="M18.9539 47.6151C18.9659 47.5887 18.9761 47.5616 18.9849 47.534C18.9872 47.5271 18.9889 47.52 18.9909 47.513C18.9969 47.4923 19.002 47.4714 19.0062 47.4503C19.0079 47.4415 19.0095 47.4326 19.0109 47.4237C19.0145 47.4016 19.017 47.3793 19.0186 47.357C19.019 47.3509 19.0199 47.3449 19.0201 47.3388C19.0215 47.3098 19.0212 47.2807 19.0192 47.2515C19.0189 47.2479 19.0184 47.2443 19.018 47.2407C19.0158 47.2154 19.0123 47.1902 19.0076 47.165C19.0062 47.1579 19.0047 47.1509 19.0031 47.1437C18.9981 47.1212 18.9921 47.0989 18.9849 47.0767C18.9829 47.0702 18.981 47.0637 18.9787 47.0572C18.9688 47.0287 18.9575 47.0005 18.9438 46.9728C18.9169 46.917 17.6245 44.195 18.2584 40.6801C18.841 37.4496 19.0844 34.8459 18.9731 32.543C18.9741 32.5111 18.9722 32.4787 18.9689 32.4462C18.8448 30.0973 18.3479 28.0594 17.4587 25.9846C15.9923 22.5631 16.4123 18.1035 16.6901 15.1526C16.7173 14.8635 16.7431 14.5893 16.7656 14.3322C16.7721 14.2583 16.7672 14.1862 16.7533 14.1172C17.1429 13.7963 17.4233 13.3657 17.5075 12.8978C17.6964 11.8482 17.3381 10.7594 16.5489 9.98539C15.9648 9.41248 14.6123 8.5256 12.1161 9.02512C9.86137 9.47611 9.11125 8.24393 8.71394 6.73881C9.19769 6.08836 10.0602 4.57629 9.25607 2.84919C8.69639 1.64686 7.92984 0.000192774 5.50556 0.000192774L5.35698 9.89154e-05C3.93801 -0.00121511 1.99429 -0.00393696 1.16485 1.03283C0.409946 1.97658 -0.0334443 4.74186 0.302384 6.41246C0.476398 7.27803 0.842824 7.86868 1.39162 8.168C1.79653 8.38885 2.17093 8.55517 2.50122 8.70187C2.73362 8.80511 2.93278 8.89372 3.10314 8.98091C3.13834 9.00635 3.17579 9.02953 3.21633 9.04905C3.24064 9.06079 3.26439 9.07149 3.28851 9.08275C3.77564 9.37221 3.96758 9.70278 4.00456 10.5453C4.02728 11.0622 2.81368 12.2179 1.27739 13.6811L1.23347 13.723C0.0587251 14.8417 -0.279074 16.8648 0.229361 19.7361C0.3862 20.6221 0.591658 21.3896 0.736389 21.8773C0.738172 21.8833 0.739767 21.8886 0.74155 21.8946C0.769051 22.286 0.901862 22.6539 1.12994 22.9501C1.21169 23.0756 1.3033 23.1466 1.43179 23.2053C1.4363 23.2073 1.44071 23.2096 1.44521 23.2115C1.44728 23.2125 1.44915 23.2135 1.45131 23.2144C1.87612 23.3995 2.32721 23.4817 2.77726 23.4817C3.89719 23.4817 5.00876 22.9722 5.68905 22.2752C5.69787 23.6558 4.89754 25.7152 4.07543 27.4624C3.03059 29.6828 2.75483 32.8489 2.71062 35.1587C2.36644 35.347 2.07116 35.521 1.83914 35.6757C1.43339 35.9462 1.00051 36.2779 1.00051 36.7926C1.00051 37.8405 1.58337 38.349 2.00902 38.7203C2.04028 38.7476 2.07097 38.7743 2.10101 38.8009C2.13076 38.829 2.16089 38.8564 2.19149 38.8826C2.34607 39.0255 2.47804 39.1695 2.56946 39.3561C2.75286 39.8576 3.44572 43.8398 4.0132 47.4221C4.07101 47.787 4.38544 48.0555 4.75478 48.0555H18.2697C18.2702 48.0555 18.2707 48.0556 18.2712 48.0556C18.2825 48.0556 18.2937 48.0538 18.3049 48.0533C18.3262 48.0524 18.3476 48.0517 18.3687 48.049C18.3833 48.047 18.3979 48.0433 18.4124 48.0405C18.4303 48.037 18.4483 48.034 18.4658 48.0293C18.48 48.0254 18.4938 48.0201 18.5079 48.0155C18.5257 48.0095 18.5436 48.0037 18.561 47.9963C18.5739 47.9909 18.5865 47.9844 18.5993 47.9781C18.6174 47.9693 18.6353 47.9601 18.6526 47.9498C18.6578 47.9467 18.6633 47.9446 18.6684 47.9413C18.679 47.9348 18.6884 47.9274 18.6985 47.9204C18.7058 47.9153 18.7133 47.9105 18.7205 47.905C18.7685 47.8692 18.811 47.8284 18.848 47.7839C18.8514 47.7798 18.8545 47.7755 18.8578 47.7714C18.8732 47.7519 18.8876 47.7319 18.9009 47.7112C18.903 47.708 18.9055 47.7053 18.9075 47.702C18.9092 47.6993 18.9104 47.6964 18.912 47.6937C18.9256 47.6712 18.9381 47.6482 18.9492 47.6246C18.9506 47.6214 18.9525 47.6183 18.9539 47.6151ZM5.43413 28.1017C6.54514 25.7408 7.11974 23.9291 7.19098 22.563C7.21736 22.0575 7.174 21.6045 7.0624 21.2047C7.51151 21.1607 7.87531 21.0473 8.07579 20.9538C8.45151 20.7784 8.61398 20.3317 8.43865 19.9559C8.26332 19.58 7.81655 19.4175 7.44065 19.593C7.43023 19.5978 6.31884 20.0237 5.43591 19.2831C5.42324 19.2725 5.41001 19.2632 5.39696 19.2536C4.91678 18.7989 4.75478 18.2472 4.75478 17.2699V16.6403C4.75478 16.2256 4.41857 15.8894 4.0039 15.8894C3.58923 15.8894 3.25303 16.2256 3.25303 16.6403V17.2699C3.25303 18.9503 3.71416 19.9531 4.88111 20.7607C4.8783 20.9099 4.7514 21.0775 4.66251 21.1766C4.17041 21.725 3.14941 22.1213 2.32674 21.9283C2.30186 21.8544 2.27314 21.7656 2.24198 21.6662C2.24555 21.6304 2.2509 21.5938 2.26019 21.5556C2.29783 21.4017 2.41656 21.1206 2.78805 20.9677C3.17147 20.8098 3.3544 20.371 3.19653 19.9875C3.03866 19.6041 2.59996 19.4212 2.21636 19.579C2.05774 19.6443 1.90981 19.7246 1.7724 19.8169C1.71187 19.5112 1.65649 19.189 1.61191 18.8577C1.34844 16.9022 1.58197 15.4648 2.2693 14.8101L2.31331 14.7683C4.47348 12.711 5.55774 11.6783 5.50509 10.4792C5.48941 10.1217 5.44427 9.81119 5.37528 9.53787C5.94163 9.49798 6.31425 9.31402 6.49614 9.22401C6.86773 9.03986 7.01978 8.58943 6.83563 8.21774C6.65158 7.84625 6.20115 7.69448 5.82946 7.87826C5.60186 7.99107 5.07493 8.24891 3.95707 7.73625C3.68844 7.58598 3.4018 7.45842 3.11112 7.32927C2.79218 7.18755 2.46227 7.04113 2.11095 6.84947C2.01315 6.79615 1.86654 6.57221 1.77494 6.11643C1.4836 4.66705 1.97983 2.41819 2.33781 1.97076C2.7156 1.49847 4.56499 1.50025 5.35538 1.50166L5.50574 1.50175C6.90453 1.50175 7.30587 2.21752 7.89493 3.48265C8.50586 4.79498 7.40123 5.98287 7.35683 6.0298C7.1801 6.21207 7.10745 6.47131 7.16367 6.719C7.35176 7.54637 7.66216 8.60144 8.39932 9.42261C9.34739 10.4788 10.6973 10.8402 12.411 10.4976C13.7586 10.228 14.855 10.4267 15.4977 11.0574C15.9253 11.4768 16.1293 12.08 16.0299 12.6318C15.9962 12.8188 15.6836 13.1271 15.3208 13.1698C14.9683 13.2126 14.6764 12.9737 14.4533 12.4637C14.2871 12.0839 13.8443 11.9104 13.4644 12.0769C13.0845 12.2431 12.9112 12.6858 13.0774 13.0658C13.5238 14.086 14.3149 14.6704 15.2268 14.6748C15.2166 14.7849 15.2061 14.8968 15.1952 15.0117C14.9031 18.1143 14.4616 22.8031 16.0787 26.5761C16.4683 27.4852 16.7761 28.3898 17.0039 29.3249C16.6028 29.4061 15.9868 29.5889 14.9744 29.9412C13.7233 30.3769 12.0765 31.0057 10.3375 31.712C8.3279 32.5281 6.02253 33.5191 4.23743 34.381C4.34921 31.6969 4.75863 29.5374 5.43413 28.1017ZM4.14178 39.4751C5.33839 39.4197 6.70986 38.8479 7.99479 38.2165C8.36694 38.0337 8.5205 37.5837 8.33757 37.2115C8.15464 36.8393 7.70467 36.6858 7.33252 36.8688C5.08197 37.9745 3.709 38.2496 3.1343 37.7105C3.08718 37.6684 3.04072 37.6275 2.99614 37.5886C2.71663 37.3448 2.5795 37.2159 2.52769 37.0221C3.12182 36.5799 5.34797 35.4091 9.78074 33.5646C13.4323 32.0451 16.4579 30.9636 17.2918 30.796C17.3472 31.1658 17.3906 31.5429 17.4233 31.9285C15.5531 32.4088 13.455 33.5209 11.4491 34.6348C11.0865 34.8361 10.9558 35.2932 11.1571 35.6558C11.2943 35.9029 11.5503 36.0422 11.8142 36.0422C11.9374 36.0422 12.0626 36.0118 12.178 35.9477C13.9096 34.9863 15.8474 33.9515 17.4937 33.4659C17.5119 35.4499 17.2708 37.6949 16.7806 40.4136C16.7244 40.7247 16.682 41.03 16.6507 41.3291C16.1881 39.5582 16.0152 38.227 16.012 38.2012C15.9605 37.7896 15.5845 37.4977 15.1738 37.5493C14.7623 37.6007 14.4704 37.976 14.5218 38.3875C14.5468 38.5875 15.1025 42.8862 16.984 46.5539H7.87719C7.87691 46.5323 7.87672 46.5115 7.87644 46.4896C7.85663 44.8461 7.8235 42.0953 8.42974 40.8828C8.6152 40.5118 8.46484 40.0608 8.09391 39.8754C7.72298 39.69 7.27198 39.8403 7.08652 40.2111C6.31734 41.7495 6.35057 44.4996 6.37478 46.5078C6.37497 46.5235 6.37516 46.5383 6.37535 46.5539H5.39546C5.06385 44.4816 4.49544 41.0363 4.14178 39.4751Z" fill="white"/>
<path d="M11.7028 20.4199C12.7476 20.4199 13.7086 20.0033 14.3197 19.2416C14.5792 18.9181 14.5274 18.4455 14.204 18.1859C13.8806 17.9265 13.4079 17.9783 13.1484 18.3017C12.7046 18.855 11.8293 19.0596 10.9702 18.8116C10.572 18.6962 10.1555 18.9262 10.0405 19.3245C9.92529 19.723 10.1551 20.1392 10.5534 20.2543C10.9393 20.3657 11.3264 20.4199 11.7028 20.4199Z" fill="white"/>
</svg>
