<svg width="45" height="41" viewBox="0 0 45 41" fill="none" xmlns="http://www.w3.org/2000/svg">
<path d="M42.5347 17.2628C42.1621 16.2147 40.9821 13.2872 38.5338 10.3307C36.7713 8.20217 34.7152 6.50503 32.4224 5.28623C30.5675 4.30019 28.5558 3.63075 26.4136 3.27954C26.2342 1.4414 24.6804 0 22.7959 0C20.9121 0 19.3586 1.44054 19.1784 3.27782C17.2009 3.60191 15.335 4.19835 13.6022 5.06328C11.3607 6.18214 9.33282 7.7518 7.57491 9.7287C7.02116 10.3514 7.98568 11.2098 8.53969 10.5868C11.614 7.12953 15.4234 5.08196 19.8912 4.47424C19.8945 4.47381 19.8977 4.4739 19.901 4.47338C23.9251 3.92359 28.182 4.50187 31.7907 6.41266C33.9308 7.54581 35.8547 9.12873 37.509 11.1175C39.5139 13.5278 40.6385 15.9665 41.13 17.2038H4.4615C4.85385 16.2148 5.64983 14.4595 6.97442 12.5692C7.44992 11.8908 6.39829 11.1415 5.91719 11.8281C4.23193 14.2328 3.36657 16.3948 3.05737 17.2627C2.17514 17.4802 1.51887 18.2777 1.51887 19.226C1.51887 20.3411 2.42606 21.2482 3.54114 21.2482H13.2906L7.6473 28.508H0.645596C0.289055 28.508 0 28.797 0 29.1536C0 29.1536 0 40.3055 0 40.3542C0 40.5421 0.0857352 40.7147 0.219331 40.8341C0.334074 40.9367 0.484197 41 0.645596 41C0.670817 41 0.696125 40.9985 0.721432 40.9955L8.03905 40.1303C8.364 40.0919 8.60881 39.8163 8.60881 39.4891V37.091L23.938 33.3045C24.4101 33.2174 24.8391 32.993 25.1801 32.6546C25.1882 32.6466 25.1961 32.6384 25.2037 32.63L33.0227 24.0066C33.7634 23.2601 33.9063 22.1394 33.4497 21.2482H42.0506C43.1657 21.2482 44.0729 20.341 44.0729 19.226C44.0729 18.2778 43.4167 17.4803 42.5347 17.2628ZM24.8672 3.08311C23.9793 3.0034 23.0871 2.97491 22.1959 2.99755C21.7287 3.00925 21.2622 3.0368 20.7965 3.07682C20.702 3.085 20.607 3.09206 20.5131 3.10136C20.7553 2.06513 21.6869 1.29119 22.7958 1.29119C23.9048 1.29119 24.8363 2.06513 25.0786 3.10136C25.0086 3.09438 24.9377 3.08939 24.8672 3.08311ZM7.31753 38.9154L1.29119 39.628V29.7992H7.31753V38.9154ZM32.1001 23.1032C32.0921 23.1112 32.0841 23.1194 32.0766 23.1278L24.2599 31.7486C24.1033 31.8999 23.9074 31.9994 23.6924 32.0368C23.6776 32.0394 23.663 32.0425 23.6484 32.046L8.60872 35.761V29.375C8.60872 29.375 14.6899 21.5518 14.6958 21.5441C15.05 21.0888 15.8402 21.2009 16.2052 21.5633C16.58 21.9357 16.6333 22.5198 16.3319 22.9521C16.2719 23.0381 12.9543 28.1359 12.9503 28.1421C12.6744 28.566 12.9926 29.1369 13.4934 29.1369H22.6737C22.844 29.1369 23.0075 29.0696 23.1284 28.9496C23.1284 28.9496 30.5635 21.5713 30.5716 21.5631C30.9921 21.1459 31.6892 21.149 32.1059 21.5689C32.5273 21.9936 32.5246 22.6819 32.1001 23.1032ZM17.5532 21.2482H21.306L14.7078 27.7961C14.7078 27.7961 17.3294 23.7791 17.3912 23.6905C17.906 22.9521 17.9472 22.013 17.5532 21.2482ZM18.5327 27.8457H16.4909L22.8219 21.5631C23.0264 21.3601 23.2978 21.2483 23.586 21.2483C23.9967 21.2483 24.3855 21.4914 24.5628 21.8617L18.5327 27.8457ZM26.6967 21.5631C26.9013 21.3601 27.1726 21.2483 27.4608 21.2483C27.8734 21.2483 28.2595 21.4898 28.4376 21.8617L22.4076 27.8458H20.3658L26.6967 21.5631ZM42.0504 19.957H3.54114C3.13803 19.957 2.81006 19.6291 2.81006 19.226C2.81006 18.8229 3.13803 18.495 3.54114 18.495H42.0504C42.4535 18.495 42.7815 18.823 42.7815 19.226C42.7815 19.629 42.4535 19.957 42.0504 19.957Z" fill="white"/>
</svg>
