<svg width="46" height="37" viewBox="0 0 46 37" fill="none" xmlns="http://www.w3.org/2000/svg">
<path d="M45.7926 7.55748C45.7926 6.61077 45.1846 5.78749 44.2797 5.50907C44.2724 5.50683 44.2652 5.50477 44.2579 5.50272L25.6425 0.412939C23.8455 -0.137646 21.947 -0.137646 20.15 0.412939L1.53468 5.50272C1.52734 5.50468 1.52019 5.50683 1.51295 5.50907C0.608004 5.78749 0 6.61068 0 7.55748C0 7.62277 0.0094805 7.68565 0.0258478 7.74575C0.0094805 7.80585 0 7.86873 0 7.93402V8.64953C0 9.83316 0.962897 10.7961 2.14653 10.7961H12.1637C12.713 10.7961 13.2147 10.5884 13.5947 10.2477C13.9747 10.5884 14.4764 10.7961 15.0257 10.7961H22.1808V24.3907H15.0257C14.6306 24.3907 14.3102 24.7111 14.3102 25.1063C14.3102 25.5014 14.6306 25.8218 15.0257 25.8218H20.7498V26.5373C20.7498 27.47 21.348 28.2654 22.1808 28.5607V32.3333C20.5498 32.6658 19.3188 34.1112 19.3188 35.8389C19.3188 36.234 19.6391 36.5544 20.0343 36.5544C20.4294 36.5544 20.7498 36.234 20.7498 35.8389C20.7498 34.9061 21.348 34.1109 22.1808 33.8154V35.8389C22.1808 36.234 22.5012 36.5544 22.8963 36.5544C23.2914 36.5544 23.6118 36.234 23.6118 35.8389V33.8154C24.4446 34.1108 25.0428 34.9061 25.0428 35.8389C25.0428 36.234 25.3632 36.5544 25.7583 36.5544C26.1535 36.5544 26.4739 36.234 26.4739 35.8389C26.4739 34.1112 25.2428 32.6657 23.6118 32.3333V28.5607C24.4446 28.2654 25.0428 27.4701 25.0428 26.5373V25.8218H30.7669C31.1621 25.8218 31.4824 25.5014 31.4824 25.1063C31.4824 24.7111 31.1621 24.3907 30.7669 24.3907H23.6118V10.7961H30.7669C31.3162 10.7961 31.8178 10.5884 32.1979 10.2477C32.578 10.5884 33.0796 10.7961 33.629 10.7961H43.6461C44.8297 10.7961 45.7926 9.83316 45.7926 8.64953V7.93402C45.7926 7.86873 45.7831 7.80585 45.7668 7.74575C45.7831 7.68565 45.7926 7.62277 45.7926 7.55748ZM23.6118 26.5373C23.6118 26.9318 23.2908 27.2528 22.8963 27.2528C22.5018 27.2528 22.1808 26.9318 22.1808 26.5373V25.8218H23.6118V26.5373ZM13.3884 5.78749H5.91905L18.7458 2.28042C16.6619 3.71618 14.0737 5.35568 13.3884 5.78749ZM21.6899 1.90665C22.4003 1.33836 23.3939 1.33961 24.1061 1.90943C24.1213 1.92159 24.1371 1.93313 24.1532 1.94404L29.856 5.78749H16.0502C17.8591 4.62031 20.3868 2.94906 21.6899 1.90665ZM12.1637 9.36504H2.14653C1.75201 9.36504 1.43102 9.04404 1.43102 8.64953V7.93402C1.43102 7.86873 1.42154 7.80585 1.40517 7.74575C1.42154 7.68565 1.43102 7.62277 1.43102 7.55748C1.43102 7.4354 1.46232 7.32011 1.51706 7.21851H12.8792V8.64953C12.8792 9.04404 12.5582 9.36504 12.1637 9.36504ZM30.7669 9.36504H15.0257C14.6312 9.36504 14.3102 9.04404 14.3102 8.64953V7.21851H31.4824V8.64953C31.4824 9.04404 31.1614 9.36504 30.7669 9.36504ZM44.3616 8.64953C44.3616 9.04404 44.0406 9.36504 43.6461 9.36504H33.629C33.2344 9.36504 32.9134 9.04404 32.9134 8.64953V7.21851H33.629C34.0241 7.21851 34.3445 6.89814 34.3445 6.503C34.3445 6.10786 34.0241 5.78749 33.629 5.78749H32.4165L27.3262 2.3568L39.8737 5.78749H36.491C36.0958 5.78749 35.7755 6.10786 35.7755 6.503C35.7755 6.89814 36.0958 7.21851 36.491 7.21851H44.2756C44.3304 7.32002 44.3616 7.4354 44.3616 7.55748C44.3616 7.62277 44.3711 7.68565 44.3874 7.74575C44.3711 7.80585 44.3616 7.86873 44.3616 7.93402V8.64953Z" fill="white"/>
<path d="M14.3103 31.4866V28.1471C14.3103 27.654 13.9091 27.2528 13.4159 27.2528H6.43968V22.2442C6.43968 21.0606 5.47678 20.0977 4.29315 20.0977C3.89801 20.0977 3.57764 20.418 3.57764 20.8132C3.57764 21.2083 3.89801 21.5287 4.29315 21.5287C4.68766 21.5287 5.00866 21.8497 5.00866 22.2442V27.9683V31.4866L4.3029 35.7213C4.23787 36.111 4.50127 36.4796 4.89104 36.5446C4.93084 36.5512 4.97047 36.5545 5.00955 36.5545C5.35299 36.5545 5.6561 36.3065 5.71442 35.9564L6.33029 32.2612H12.9886L13.6045 35.9564C13.6628 36.3065 13.966 36.5545 14.3094 36.5545C14.3485 36.5545 14.3881 36.5512 14.4279 36.5446C14.8177 36.4796 15.0811 36.111 15.016 35.7213L14.3103 31.4866ZM12.8793 30.8303H6.43968V28.6838H12.8793V30.8303Z" fill="white"/>
<path d="M41.4996 20.0977C40.316 20.0977 39.3531 21.0606 39.3531 22.2442V27.2528H32.3769C31.8837 27.2528 31.4825 27.654 31.4825 28.1471V31.4866L30.7767 35.7213C30.7117 36.111 30.9751 36.4796 31.3649 36.5446C31.4047 36.5512 31.4443 36.5545 31.4834 36.5545C31.8268 36.5545 32.1299 36.3065 32.1882 35.9564L32.8041 32.2612H39.4625L40.0783 35.9564C40.1366 36.3065 40.4398 36.5545 40.7832 36.5545C40.8223 36.5545 40.8619 36.5512 40.9017 36.5446C41.2915 36.4796 41.5549 36.111 41.4899 35.7213L40.7841 31.4866V27.9683V22.2442C40.7841 21.8497 41.1051 21.5287 41.4996 21.5287C41.8947 21.5287 42.2151 21.2083 42.2151 20.8132C42.2151 20.418 41.8947 20.0977 41.4996 20.0977ZM32.9135 28.6838H39.3531V30.8303H32.9135V28.6838Z" fill="white"/>
</svg>
