<svg width="43" height="43" viewBox="0 0 43 43" fill="none" xmlns="http://www.w3.org/2000/svg">
<path d="M36.6307 6.46932C32.589 2.42753 27.2151 0.20166 21.4992 0.20166C15.7833 0.20166 10.4095 2.42753 6.36776 6.46932C2.32597 10.511 0.100098 15.8848 0.100098 21.6008C0.100098 27.3167 2.32597 32.6905 6.36776 36.7322C10.4095 40.774 15.7833 42.9999 21.4992 42.9999C27.2151 42.9999 32.589 40.774 36.6307 36.7322C40.6725 32.6905 42.8983 27.3167 42.8983 21.6008C42.8983 15.8848 40.6725 10.511 36.6307 6.46932ZM21.4992 41.634C10.4528 41.634 1.466 32.6472 1.466 21.6008C1.466 10.5544 10.4528 1.56756 21.4992 1.56756C32.5456 1.56756 41.5324 10.5544 41.5324 21.6008C41.5324 32.6472 32.5456 41.634 21.4992 41.634Z" fill="white"/>
<path d="M35.1264 13.7651C35.4446 13.5625 35.5383 13.1404 35.3357 12.8222C32.3015 8.05559 27.1288 5.20996 21.499 5.20996C15.8691 5.20996 10.6964 8.05568 7.66212 12.8222C7.45951 13.1404 7.5533 13.5625 7.87147 13.7651C7.98511 13.8374 8.11214 13.872 8.23753 13.872C8.46327 13.872 8.68418 13.7601 8.8143 13.5556C11.5966 9.18519 16.3385 6.57586 21.499 6.57586C26.6594 6.57586 31.4014 9.1851 34.1835 13.5556C34.3862 13.8739 34.8082 13.9677 35.1264 13.7651Z" fill="white"/>
<path d="M32.2694 27.9479C32.6465 27.9479 32.9523 27.6421 32.9523 27.2649V16.1189C32.9523 14.1269 31.3317 12.5063 29.3397 12.5063C27.5812 12.5063 26.112 13.7694 25.7918 15.4359H25.3056V12.0395H25.9477C26.3249 12.0395 26.6307 11.7337 26.6307 11.3565C26.6307 10.9794 26.3249 10.6736 25.9477 10.6736H24.7007C24.6875 10.6736 24.6747 10.6748 24.6617 10.6755C24.6487 10.6748 24.6358 10.6736 24.6226 10.6736H23.6071C22.6276 10.6736 21.8307 11.4705 21.8307 12.45V15.4359H21.1674V12.45C21.1674 11.4705 20.3706 10.6736 19.391 10.6736H18.3756C18.3624 10.6736 18.3496 10.6748 18.3366 10.6755C18.3235 10.6748 18.3107 10.6736 18.2975 10.6736H17.0505C16.6733 10.6736 16.3676 10.9794 16.3676 11.3565C16.3676 11.7337 16.6733 12.0395 17.0505 12.0395H17.6927V15.4359H17.2064C16.8862 13.7694 15.4171 12.5063 13.6585 12.5063C11.6666 12.5063 10.0459 14.1269 10.0459 16.1189V27.2649C10.0459 27.6421 10.3517 27.9479 10.7288 27.9479C13.9689 27.9479 16.6966 25.576 17.2004 22.4403H17.6757C17.8583 23.5926 18.4981 24.5978 19.4384 25.2141L17.1489 29.8379C17.0667 30.004 17.0555 30.1963 17.1178 30.3708C17.1802 30.5453 17.3107 30.6869 17.4795 30.7633C17.5483 30.7944 19.1931 31.5263 21.4991 31.5263C23.8051 31.5263 25.4498 30.7944 25.5186 30.7633C25.6875 30.6869 25.818 30.5453 25.8803 30.3708C25.9426 30.1963 25.9314 30.004 25.8492 29.8379L23.5598 25.2141C24.5 24.5978 25.1399 23.5926 25.3224 22.4403H25.7977C26.3017 25.576 29.0294 27.9479 32.2694 27.9479ZM27.088 21.6886C27.0775 21.5868 26.9916 21.0787 26.3314 21.075L26.2698 21.0746C26.2641 21.0746 26.2583 21.0745 26.2525 21.0745H24.6931C24.3159 21.0745 24.0101 21.3802 24.0101 21.7574C24.0101 22.8746 23.3604 23.8933 22.3934 24.2923C22.2184 24.3646 22.0813 24.5061 22.0146 24.6832C21.948 24.8603 21.9578 25.0572 22.0418 25.2267L24.2838 29.7546C23.6701 29.9376 22.6808 30.1604 21.4991 30.1604C20.3172 30.1604 19.3277 29.9375 18.7144 29.7545L20.9563 25.2266C21.0403 25.0571 21.0501 24.8602 20.9835 24.6831C20.9169 24.506 20.7797 24.3645 20.6048 24.2923C19.6377 23.8932 18.988 22.8745 18.988 21.7573C18.988 21.3802 18.6822 21.0744 18.305 21.0744H16.7456C16.7398 21.0744 16.7341 21.0745 16.7283 21.0746L16.6667 21.0749C16.0065 21.0786 15.9207 21.5867 15.9102 21.6885C15.9092 21.6979 15.9084 21.7072 15.9079 21.7166C15.7545 24.2142 13.8347 26.2164 11.4118 26.5371V16.1189C11.4118 14.8801 12.4197 13.8722 13.6585 13.8722C14.8974 13.8722 15.9052 14.88 15.9052 16.1189C15.9052 16.4961 16.211 16.8018 16.5882 16.8018H18.3756C18.7528 16.8018 19.0586 16.4961 19.0586 16.1189V12.0395H19.391C19.6174 12.0395 19.8015 12.2236 19.8015 12.45V16.1189C19.8015 16.4961 20.1073 16.8018 20.4845 16.8018H22.5137C22.8908 16.8018 23.1966 16.4961 23.1966 16.1189V12.45C23.1966 12.2236 23.3807 12.0395 23.6071 12.0395H23.9396V16.1189C23.9396 16.4961 24.2453 16.8018 24.6225 16.8018H26.4099C26.7871 16.8018 27.0929 16.4961 27.0929 16.1189C27.0929 14.8801 28.1007 13.8722 29.3396 13.8722C30.5785 13.8722 31.5863 14.88 31.5863 16.1189V26.5371C29.1633 26.2164 27.2437 24.2142 27.0902 21.7166C27.0897 21.7073 27.089 21.698 27.088 21.6886Z" fill="white"/>
<path d="M18.995 36.2917C18.6178 36.2917 18.312 36.5975 18.312 36.9747C18.312 37.3519 18.6178 37.6576 18.995 37.6576H24.0033C24.3804 37.6576 24.6862 37.3519 24.6862 36.9747C24.6862 36.5975 24.3804 36.2917 24.0033 36.2917H18.995Z" fill="white"/>
<path d="M27.1906 33.909C27.1906 33.5319 26.8848 33.2261 26.5077 33.2261H16.4911C16.1139 33.2261 15.8081 33.5319 15.8081 33.909C15.8081 34.2862 16.1139 34.592 16.4911 34.592H26.5077C26.8848 34.592 27.1906 34.2862 27.1906 33.909Z" fill="white"/>
<path d="M38.4113 28.9803C38.0716 28.8163 37.6633 28.9586 37.4992 29.2982C34.5471 35.409 28.2667 39.3574 21.4993 39.3574C12.2478 39.3574 4.46967 32.1357 3.79137 22.9165C3.76368 22.5405 3.4366 22.2584 3.06015 22.2855C2.68398 22.3132 2.40152 22.6405 2.42911 23.0167C2.78215 27.8149 4.92433 32.2757 8.46111 35.5773C12.0159 38.8958 16.6463 40.7233 21.4993 40.7233C25.1605 40.7233 28.7211 39.6808 31.7962 37.7083C34.7888 35.7888 37.1862 33.086 38.7292 29.8924C38.8932 29.5527 38.7509 29.1444 38.4113 28.9803Z" fill="white"/>
<path d="M21.4993 2.47815C16.6463 2.47815 12.0159 4.30572 8.46112 7.62414C4.92435 10.9257 2.78216 15.3865 2.42912 20.1848C2.40144 20.5609 2.684 20.8883 3.06016 20.916C3.43633 20.9433 3.76379 20.6612 3.79138 20.2849C4.46968 11.0658 12.2479 3.84405 21.4993 3.84405C31.2903 3.84405 39.256 11.8097 39.256 21.6008C39.256 23.3895 38.9894 25.156 38.4635 26.8515C38.3518 27.2117 38.5532 27.5943 38.9135 27.7061C38.9809 27.7269 39.049 27.7369 39.116 27.7369C39.4073 27.7369 39.6772 27.5491 39.7681 27.2561C40.3346 25.4296 40.6219 23.5268 40.6219 21.6008C40.6219 11.0566 32.0435 2.47815 21.4993 2.47815Z" fill="white"/>
</svg>
