<svg width="21" height="21" viewBox="0 0 21 21" fill="none" xmlns="http://www.w3.org/2000/svg">
<path d="M17.3204 13.0114C16.5976 12.2978 15.6952 12.2978 14.977 13.0114C14.4291 13.5547 13.8813 14.0979 13.3426 14.6504C13.1953 14.8023 13.071 14.8345 12.8914 14.7333C12.5369 14.5399 12.1594 14.3834 11.8187 14.1716C10.2303 13.1726 8.8998 11.8881 7.72119 10.4425C7.13649 9.72431 6.61625 8.95547 6.25254 8.08996C6.17887 7.91501 6.19269 7.79992 6.33541 7.6572C6.88328 7.12776 7.41733 6.58451 7.95599 6.04126C8.70643 5.28624 8.70643 4.40231 7.95139 3.64268C7.52322 3.20992 7.09506 2.78637 6.66689 2.35361C6.22491 1.91164 5.78754 1.46507 5.34096 1.02771C4.61814 0.32333 3.71577 0.32333 2.99755 1.03232C2.44508 1.57557 1.91563 2.13263 1.35395 2.66667C0.833705 3.15928 0.571281 3.76238 0.516034 4.46676C0.428559 5.61311 0.709399 6.695 1.10534 7.74928C1.91563 9.93148 3.14948 11.8697 4.64576 13.6468C6.66689 16.0499 9.07935 17.9513 11.9016 19.3233C13.1723 19.9402 14.489 20.4144 15.9208 20.4926C16.906 20.5479 17.7624 20.2993 18.4484 19.5304C18.918 19.0056 19.4474 18.5268 19.9446 18.025C20.6813 17.2792 20.6859 16.3768 19.9538 15.6402C19.0791 14.7609 18.1997 13.8862 17.3204 13.0114Z" fill="#626264"/>
</svg>
