<svg width="20" height="20" viewBox="0 0 20 20" fill="none" xmlns="http://www.w3.org/2000/svg">
<path d="M16.8204 12.5114C16.0976 11.7978 15.1952 11.7978 14.477 12.5114C13.9291 13.0547 13.3813 13.5979 12.8426 14.1504C12.6953 14.3023 12.571 14.3345 12.3914 14.2333C12.0369 14.0399 11.6594 13.8834 11.3187 13.6716C9.73034 12.6726 8.3998 11.3881 7.22119 9.9425C6.63649 9.22431 6.11625 8.45547 5.75254 7.58996C5.67887 7.41501 5.69269 7.29992 5.83541 7.1572C6.38328 6.62776 6.91733 6.08451 7.45599 5.54126C8.20643 4.78624 8.20643 3.90231 7.45139 3.14268C7.02322 2.70992 6.59506 2.28637 6.16689 1.85361C5.72491 1.41164 5.28754 0.965075 4.84096 0.527713C4.11814 -0.17667 3.21577 -0.17667 2.49755 0.532317C1.94508 1.07557 1.41563 1.63263 0.85395 2.16667C0.333705 2.65928 0.071281 3.26238 0.0160338 3.96676C-0.071441 5.11311 0.209399 6.195 0.605338 7.24928C1.41563 9.43148 2.64948 11.3697 4.14576 13.1468C6.16689 15.5499 8.57935 17.4513 11.4016 18.8233C12.6723 19.4402 13.989 19.9144 15.4208 19.9926C16.406 20.0479 17.2624 19.7993 17.9484 19.0304C18.418 18.5056 18.9474 18.0268 19.4446 17.525C20.1813 16.7792 20.1859 15.8768 19.4538 15.1402C18.5791 14.2609 17.6997 13.3862 16.8204 12.5114Z" fill="#201E21"/>
</svg>
